<svg xmlns="http://www.w3.org/2000/svg" xml:space="preserve" viewBox="0 0 909.908 619.938">
   <path fill="black"
      d="M309.969 0C138.774 0 0 138.774 0 309.969s138.774 309.969 309.969 309.969c52.399 0 101.729-13.048 144.999-36-98.13-52.034-164.999-155.163-164.999-273.969 0-118.806 66.869-221.936 164.999-273.969-43.27-22.952-92.6-36-144.999-36zM454.968 36c98.11 52.038 164.97 155.173 164.97 273.969 0 118.796-66.86 221.931-164.97 273.969 43.27 22.944 92.58 36 144.97 36 171.19 0 309.97-138.774 309.97-309.969S771.128 0 599.938 0c-52.39 0-101.7 13.056-144.97 36z" />
   <path fill="red"
      d="M454.968 36c-98.13 52.033-164.999 155.163-164.999 273.969 0 118.806 66.869 221.935 164.999 273.969 98.11-52.038 164.97-155.173 164.97-273.969 0-118.796-66.86-221.931-164.97-273.969z" />
   <path fill="black"
      d="M1312.433 156.09c-90.127 42.722-151.554 127.394-151.554 224.937s61.427 182.215 151.554 224.936c90.117-42.725 151.52-127.4 151.52-224.936 0-97.535-61.403-182.212-151.52-224.936z"
      transform="translate(-857.465 -120.09)" />
</svg>